Coordinates
version=1
nRows=5
nColumns=46
inDegrees=yes

Units are S.I. units (second, meters, Newtons, ...)
Angles are in degrees.

endheader
time	pelvis_tilt	pelvis_list	pelvis_rotation	pelvis_tx	pelvis_ty	pelvis_tz	bb_angle	bb_tx	bb_ty	bb_tz	hip_flexion_r	hip_adduction_r	hip_rotation_r	knee_angle_r	knee_angle_r_beta	ankle_angle_r	subtalar_angle_r	mtp_angle_r	crank_angle_r	hip_flexion_l	hip_adduction_l	hip_rotation_l	knee_angle_l	knee_angle_l_beta	ankle_angle_l	subtalar_angle_l	mtp_angle_l	crank_angle_l	lumbar_extension	lumbar_bending	lumbar_rotation	arm_flex_r	arm_add_r	arm_rot_r	elbow_flex_r	pro_sup_r	wrist_flex_r	wrist_dev_r	arm_flex_l	arm_add_l	arm_rot_l	elbow_flex_l	pro_sup_l	wrist_flex_l	wrist_dev_l
      5.00000000	    -23.57761540	      3.47084585	     -8.17452045	      0.45264685	      1.16266812	     -0.22180167	      0.00000000	      0.50000000	      0.00000000	      0.25000000	     55.16437891	     -0.60451593	      6.84245251	     60.53406943	      1.05651882	     11.98295736	     -6.11118712	      0.00000000	      0.00000000	     41.38856549	     -3.64845215	      0.03294542	     68.63504324	      1.19790749	    -30.34268645	     -7.69728403	      0.00000000	      0.00000000	    -56.78404064	     -7.46348859	     11.30181393	     48.92110286	    -56.15054144	     50.27055041	     96.17961820	     59.00903999	      0.00000000	      0.00000000	     49.67920955	    -14.39831458	     31.78873721	     68.74176115	     52.13772735	      0.00000000	      0.00000000
      5.00500000	    -23.61754378	      4.10710068	     -7.76855246	      0.45192223	      1.16039367	     -0.22173165	      0.00000000	      0.50000000	      0.00000000	      0.25000000	     54.11969941	     -1.25570673	      7.40185482	     58.33655692	      1.01816499	     10.92180780	     -6.55344150	      0.00000000	      0.00000000	     42.70919443	     -2.86143042	      0.13657100	     71.32531405	      1.24486157	    -28.71852680	     -7.95853323	      0.00000000	      0.00000000	    -56.43810100	     -7.85343942	     10.43517453	     47.77007824	    -55.34361028	     49.07462205	     95.69768626	     58.80849321	      0.00000000	      0.00000000	     49.89514735	    -15.36006406	     32.81572816	     69.23263909	     52.40731070	      0.00000000	      0.00000000
      5.01000000	    -23.66712640	      4.55407450	     -7.13229126	      0.45118568	      1.15813405	     -0.22190790	      0.00000000	      0.50000000	      0.00000000	      0.25000000	     52.94846304	     -1.95200474	      7.59838249	     56.03902992	      0.97806558	      9.49700027	     -6.99902787	      0.00000000	      0.00000000	     44.09417361	     -2.07189437	      0.50948539	     74.03331922	      1.29212518	    -26.95868213	     -8.08615309	      0.00000000	      0.00000000	    -56.16590179	     -7.89838766	      9.58265214	     47.20019691	    -55.09218127	     48.69638717	     95.75221510	     58.78467634	      0.00000000	      0.00000000	     49.96860687	    -15.81149949	     33.05472888	     69.40894793	     52.48580062	      0.00000000	      0.00000000
      5.01500000	    -23.92069068	      5.06807584	     -6.53876060	      0.45029376	      1.15548958	     -0.22162797	      0.00000000	      0.50000000	      0.00000000	      0.25000000	     51.95303773	     -2.52205322	      8.02131045	     53.77311070	      0.93851783	      8.17171385	     -7.84697592	      0.00000000	      0.00000000	     45.70655945	     -1.27822494	      0.87814184	     76.71567948	      1.33894119	    -25.11823908	     -8.04521680	      0.00000000	      0.00000000	    -55.66999612	     -8.15232959	      8.59498438	     45.66520360	    -54.08634891	     47.00452737	     95.47918159	     58.58296163	      0.00000000	      0.00000000	     49.85571532	    -16.93352964	     33.67963810	     70.53895412	     52.80672209	      0.00000000	      0.00000000
      5.02000000	    -24.05345731	      5.49107679	     -5.71809224	      0.44955302	      1.15305544	     -0.22160098	      0.00000000	      0.50000000	      0.00000000	      0.25000000	     50.72051519	     -3.23487990	      8.21430797	     51.52021967	      0.89919746	      6.93258031	     -8.81789193	      0.00000000	      0.00000000	     47.20502353	     -0.36509283	      1.53897525	     79.40138290	      1.38581556	    -22.96706806	     -7.56549977	      0.00000000	      0.00000000	    -55.30565034	     -8.17690171	      7.62618411	     45.00131560	    -53.72138106	     46.61083222	     95.50235765	     58.55580528	      0.00000000	      0.00000000	     49.88463662	    -17.39538061	     33.83432686	     70.79202358	     52.87864736	      0.00000000	      0.00000000
